# xmcd
#
# Track frame offsets:
#	150
#	20997
#	45147
#	62022
#	77360
#	88050
#	125247
#	147035
#	178500
#
# Disc length: 2452 seconds
#
# Revision: 15
# Processed by: cddbd v1.5.2PL0 Copyright (c) Steve Scherf et al.
# Submitted via: Jack! The Knife 20 Magnifico
#
DISCID=70099209
DTITLE=Stratovarius - Fright Night
DYEAR=1989
DGENRE=Metal
TTITLE0=Future Shock
TTITLE1=False Messiah
TTITLE2=Black Night
TTITLE3=Witch-Hunt
TTITLE4=Firedance
TTITLE5=Fright Night
TTITLE6=Night Screamer
TTITLE7=Darkness
TTITLE8=Goodbye
EXTD=Stratovarius
EXTT0=Timo Tolkki
EXTT1=Timo Tolkki
EXTT2=Timo Tolkki
EXTT3=Timo Tolkki
EXTT4=Timo Tolkki
EXTT5=Timo Tolkki
EXTT6=Timo Tolkki
EXTT7=Timo Tolkki
EXTT8=Timo Tolkki
PLAYORDER=
